<mxfile host="app.diagrams.net" modified="2023-03-26T15:56:06.937Z" agent="Mozilla/5.0 (Windows NT 10.0; Win64; x64; rv:109.0) Gecko/20100101 Firefox/112.0" etag="WSZxkPxj_8HvypCcnbvf" version="21.1.1" type="github">
  <diagram name="Page-1" id="1ZPPAXihkScUyz9930Up">
    <mxGraphModel dx="934" dy="464" grid="1" gridSize="10" guides="1" tooltips="1" connect="1" arrows="1" fold="1" page="1" pageScale="1" pageWidth="827" pageHeight="1169" math="0" shadow="0">
      <root>
        <mxCell id="0" />
        <mxCell id="1" parent="0" />
        <mxCell id="_2MVPNThq8Vdj2HL73zS-21" style="edgeStyle=orthogonalEdgeStyle;rounded=0;orthogonalLoop=1;jettySize=auto;html=1;entryX=0;entryY=0.5;entryDx=0;entryDy=0;" edge="1" parent="1" target="_2MVPNThq8Vdj2HL73zS-5">
          <mxGeometry relative="1" as="geometry">
            <mxPoint x="75" y="220" as="sourcePoint" />
            <mxPoint x="213" y="95" as="targetPoint" />
            <Array as="points">
              <mxPoint x="145" y="220" />
              <mxPoint x="145" y="95" />
            </Array>
          </mxGeometry>
        </mxCell>
        <mxCell id="_2MVPNThq8Vdj2HL73zS-22" style="edgeStyle=orthogonalEdgeStyle;rounded=0;orthogonalLoop=1;jettySize=auto;html=1;entryX=0;entryY=0.5;entryDx=0;entryDy=0;" edge="1" parent="1" source="_2MVPNThq8Vdj2HL73zS-1" target="_2MVPNThq8Vdj2HL73zS-6">
          <mxGeometry relative="1" as="geometry" />
        </mxCell>
        <mxCell id="_2MVPNThq8Vdj2HL73zS-23" style="edgeStyle=orthogonalEdgeStyle;rounded=0;orthogonalLoop=1;jettySize=auto;html=1;" edge="1" parent="1" source="_2MVPNThq8Vdj2HL73zS-1" target="_2MVPNThq8Vdj2HL73zS-7">
          <mxGeometry relative="1" as="geometry" />
        </mxCell>
        <mxCell id="_2MVPNThq8Vdj2HL73zS-24" style="edgeStyle=orthogonalEdgeStyle;rounded=0;orthogonalLoop=1;jettySize=auto;html=1;entryX=0;entryY=0.5;entryDx=0;entryDy=0;" edge="1" parent="1" source="_2MVPNThq8Vdj2HL73zS-1" target="_2MVPNThq8Vdj2HL73zS-8">
          <mxGeometry relative="1" as="geometry" />
        </mxCell>
        <mxCell id="_2MVPNThq8Vdj2HL73zS-25" style="edgeStyle=orthogonalEdgeStyle;rounded=0;orthogonalLoop=1;jettySize=auto;html=1;entryX=0;entryY=0.5;entryDx=0;entryDy=0;" edge="1" parent="1" source="_2MVPNThq8Vdj2HL73zS-1" target="_2MVPNThq8Vdj2HL73zS-9">
          <mxGeometry relative="1" as="geometry" />
        </mxCell>
        <mxCell id="_2MVPNThq8Vdj2HL73zS-1" value="&lt;div&gt;Utilisateur&lt;/div&gt;&lt;div&gt;&lt;br&gt;&lt;/div&gt;" style="shape=umlActor;verticalLabelPosition=bottom;verticalAlign=top;html=1;outlineConnect=0;" vertex="1" parent="1">
          <mxGeometry x="50" y="190" width="30" height="60" as="geometry" />
        </mxCell>
        <mxCell id="_2MVPNThq8Vdj2HL73zS-12" style="edgeStyle=orthogonalEdgeStyle;rounded=0;orthogonalLoop=1;jettySize=auto;html=1;entryX=0;entryY=0.5;entryDx=0;entryDy=0;dashed=1;dashPattern=8 8;" edge="1" parent="1" source="_2MVPNThq8Vdj2HL73zS-5" target="_2MVPNThq8Vdj2HL73zS-10">
          <mxGeometry relative="1" as="geometry">
            <Array as="points">
              <mxPoint x="460" y="95" />
              <mxPoint x="460" y="235" />
            </Array>
          </mxGeometry>
        </mxCell>
        <mxCell id="_2MVPNThq8Vdj2HL73zS-5" value="Gérer le profil" style="ellipse;whiteSpace=wrap;html=1;" vertex="1" parent="1">
          <mxGeometry x="227" y="80" width="119" height="30" as="geometry" />
        </mxCell>
        <mxCell id="_2MVPNThq8Vdj2HL73zS-11" style="edgeStyle=orthogonalEdgeStyle;rounded=0;orthogonalLoop=1;jettySize=auto;html=1;entryX=0;entryY=0.5;entryDx=0;entryDy=0;dashed=1;dashPattern=8 8;" edge="1" parent="1" source="_2MVPNThq8Vdj2HL73zS-6" target="_2MVPNThq8Vdj2HL73zS-10">
          <mxGeometry relative="1" as="geometry" />
        </mxCell>
        <mxCell id="_2MVPNThq8Vdj2HL73zS-6" value="Gérer les tableaux de bord" style="ellipse;whiteSpace=wrap;html=1;" vertex="1" parent="1">
          <mxGeometry x="210" y="128" width="150" height="52" as="geometry" />
        </mxCell>
        <mxCell id="_2MVPNThq8Vdj2HL73zS-13" style="edgeStyle=orthogonalEdgeStyle;rounded=0;orthogonalLoop=1;jettySize=auto;html=1;entryX=0;entryY=0.5;entryDx=0;entryDy=0;dashed=1;dashPattern=8 8;" edge="1" parent="1" source="_2MVPNThq8Vdj2HL73zS-7" target="_2MVPNThq8Vdj2HL73zS-10">
          <mxGeometry relative="1" as="geometry" />
        </mxCell>
        <mxCell id="_2MVPNThq8Vdj2HL73zS-7" value="Gérer les espaces de travails" style="ellipse;whiteSpace=wrap;html=1;" vertex="1" parent="1">
          <mxGeometry x="210" y="194" width="150" height="52" as="geometry" />
        </mxCell>
        <mxCell id="_2MVPNThq8Vdj2HL73zS-14" style="edgeStyle=orthogonalEdgeStyle;rounded=0;orthogonalLoop=1;jettySize=auto;html=1;entryX=0;entryY=0.5;entryDx=0;entryDy=0;dashed=1;dashPattern=8 8;" edge="1" parent="1" source="_2MVPNThq8Vdj2HL73zS-8" target="_2MVPNThq8Vdj2HL73zS-10">
          <mxGeometry relative="1" as="geometry" />
        </mxCell>
        <mxCell id="_2MVPNThq8Vdj2HL73zS-8" value="Gérer les documents" style="ellipse;whiteSpace=wrap;html=1;" vertex="1" parent="1">
          <mxGeometry x="210" y="266" width="150" height="52" as="geometry" />
        </mxCell>
        <mxCell id="_2MVPNThq8Vdj2HL73zS-15" style="edgeStyle=orthogonalEdgeStyle;rounded=0;orthogonalLoop=1;jettySize=auto;html=1;entryX=0;entryY=0.5;entryDx=0;entryDy=0;dashed=1;dashPattern=8 8;" edge="1" parent="1" source="_2MVPNThq8Vdj2HL73zS-9" target="_2MVPNThq8Vdj2HL73zS-10">
          <mxGeometry relative="1" as="geometry" />
        </mxCell>
        <mxCell id="_2MVPNThq8Vdj2HL73zS-9" value="Gérer les signatures" style="ellipse;whiteSpace=wrap;html=1;" vertex="1" parent="1">
          <mxGeometry x="210" y="336" width="150" height="52" as="geometry" />
        </mxCell>
        <mxCell id="_2MVPNThq8Vdj2HL73zS-10" value="S&#39;authentifier" style="ellipse;whiteSpace=wrap;html=1;" vertex="1" parent="1">
          <mxGeometry x="560" y="210" width="75" height="50" as="geometry" />
        </mxCell>
        <mxCell id="_2MVPNThq8Vdj2HL73zS-16" value="&amp;lt;&amp;lt;include&amp;gt;&amp;gt;" style="text;html=1;align=center;verticalAlign=middle;resizable=0;points=[];autosize=1;strokeColor=none;fillColor=none;" vertex="1" parent="1">
          <mxGeometry x="360" y="70" width="90" height="30" as="geometry" />
        </mxCell>
        <mxCell id="_2MVPNThq8Vdj2HL73zS-17" value="&amp;lt;&amp;lt;include&amp;gt;&amp;gt;" style="text;html=1;align=center;verticalAlign=middle;resizable=0;points=[];autosize=1;strokeColor=none;fillColor=none;" vertex="1" parent="1">
          <mxGeometry x="360" y="128" width="90" height="30" as="geometry" />
        </mxCell>
        <mxCell id="_2MVPNThq8Vdj2HL73zS-18" value="&amp;lt;&amp;lt;include&amp;gt;&amp;gt;" style="text;html=1;align=center;verticalAlign=middle;resizable=0;points=[];autosize=1;strokeColor=none;fillColor=none;" vertex="1" parent="1">
          <mxGeometry x="360" y="200" width="90" height="30" as="geometry" />
        </mxCell>
        <mxCell id="_2MVPNThq8Vdj2HL73zS-19" value="&amp;lt;&amp;lt;include&amp;gt;&amp;gt;" style="text;html=1;align=center;verticalAlign=middle;resizable=0;points=[];autosize=1;strokeColor=none;fillColor=none;" vertex="1" parent="1">
          <mxGeometry x="360" y="270" width="90" height="30" as="geometry" />
        </mxCell>
        <mxCell id="_2MVPNThq8Vdj2HL73zS-20" value="&amp;lt;&amp;lt;include&amp;gt;&amp;gt;" style="text;html=1;align=center;verticalAlign=middle;resizable=0;points=[];autosize=1;strokeColor=none;fillColor=none;" vertex="1" parent="1">
          <mxGeometry x="360" y="330" width="90" height="30" as="geometry" />
        </mxCell>
      </root>
    </mxGraphModel>
  </diagram>
</mxfile>
